<svg id="SvgjsSvg1028" width="288" height="288" xmlns="http://www.w3.org/2000/svg" version="1.1" xmlns:xlink="http://www.w3.org/1999/xlink" xmlns:svgjs="http://svgjs.com/svgjs"><path id="SvgjsPath1040" d="M 144,0 C 5,0 0,5 0,144 0,283 5,288 144,288 283,288 288,283 288,144 288,5 283,0 144,0 Z" fill="#1dba35" transform="matrix(0.7916,0,0,0.7916,30.009600000000006,30.009600000000006)"></path><defs id="SvgjsDefs1029"></defs><g id="SvgjsG1030" transform="matrix(0.55,0,0,0.55,64.56851023435593,64.79999313354492)"><!--?xml version="1.0" encoding="UTF-8"?--><svg xmlns="http://www.w3.org/2000/svg" xmlns:xlink="http://www.w3.org/1999/xlink" version="1.1" id="Layer_1" x="0px" y="0px" viewBox="0 0 61.8 63" xml:space="preserve" width="288" height="288"><g id="goat_x5F_line" fill="#ffffff" class="color000 svgShape"><ellipse cx="18.2" cy="27" rx="1.9" ry="2" fill="#ffffff" class="color000 svgShape"></ellipse><ellipse cx="43.6" cy="27" rx="1.9" ry="2" fill="#ffffff" class="color000 svgShape"></ellipse><path d="M24 50.7c1.9 1.5 4.3 2.3 6.6 2.3h.6c2.4 0 4.7-.8 6.5-2.3l.9-.7.3-.2c.5-.3.6-.9.2-1.4-.2-.3-.6-.5-1-.4-.1 0-.3.1-.4.2l-.7.5-.6.5c-1.3 1-2.8 1.6-4.4 1.8v-1c0-2.2 1.1-4 2.4-4H36c.6 0 1-.4 1-1 0-.5-.4-1-.9-1H34.4c-1.4 0-2.7.9-3.5 2.3-.9-1.4-2.3-2.3-3.8-2.3H26c-.6 0-1 .4-1 1s.4 1 1 1h1.1c1.3 0 2.9 1.8 2.9 4v1c-1.8-.1-3.5-.8-4.9-1.8l-1-.9c-.1-.3-.4-.3-.7-.3-.2 0-.4.1-.5.3-.4.4-.3 1 .1 1.4l1 1z" fill="#ffffff" class="color000 svgShape"></path><path d="M12.1 25.9V42c0 5.5 9.4 13 13.2 15.3 0 .1 0 .2.1.3.3 1.2 1.3 3.9 5 5.3.1 0 .2.1.3.1h.2c.1 0 .2 0 .3-.1 4.2-1.5 5-4.8 5.1-5.7l.1-.1C40.2 54.7 49 47.3 49 41.9V26c4.6-.8 8-2.7 10.1-5.7 3.3-4.7 2.4-10.3 2.4-10.5-.1-.3-.2-.6-.5-.7-.3-.1-.6-.1-.9 0l-11.3 5.5-.2.1c-.4-1-1-1.8-1.7-2.4-.7-.6-1.5-.9-2.3-1.1v-.1c.5-2.7 2.1-4.6 4.4-5.4 1.3-.4 2.1-1.6 2-3-.1-1.3-1-2.4-2.3-2.6C48.1 0 47.5 0 47 0c-6.7 0-11.2 3.8-13.2 11h-5.7c-2-7.2-6.5-11-13.2-11-.6 0-1.2 0-1.8.1-1.3.2-2.2 1.2-2.3 2.6-.1 1.4.7 2.6 2 3 1.7.5 3.8 1.9 4.5 5.3v.1c-1 .2-1.9.6-2.6 1.1-1 .8-1.7 1.8-2.1 2.8l-.2-.1L1.6 9.1C1.3 8.9 1 8.9.7 9c-.3.2-.5.4-.6.8 0 .2-1 5.8 2.4 10.5 2.1 2.9 5.3 4.7 9.6 5.6zm37-9.3l10.7-5.2c0 1.8-.2 4.9-2.1 7.6-1.8 2.5-4.7 4.1-8.5 4.8V17c-.1-.1-.1-.2-.1-.4zM30.9 61c-1.9-.8-2.8-2-3.2-3h6.5c-.5.9-1.4 2.2-3.3 3zM47 2c.5 0 1 0 1.5.1s.5.6.5.8c0 .1 0 .7-.6.9-3.2 1-5.3 3.6-5.9 7.2h-6.8c1.9-6.1 5.6-9 11.3-9zM13.3 3.8c-.6-.2-.6-.8-.6-.9 0-.2.1-.7.6-.7.6-.2 1.1-.2 1.6-.2 5.7 0 9.4 2.9 11.1 9h-6.8c-.7-4.9-3.9-6.6-5.9-7.2zm.8 18.2h5.1c2 0 3.7 1.8 3.7 4 0 .6.4 1 1 1 .1 0 .2 0 .3-.1.4-.1.7-.5.7-.9 0-3.4-2.5-6-5.7-6h-5.1v-3c0-1.2.6-2.4 1.7-3.2.6-.5 1.5-.8 2.4-.8H43.6c.8 0 1.5.2 2.1.8.9.7 1.4 1.9 1.4 3.2v3h-4.5c-3.2 0-5.9 2.7-5.9 6 0 .3.2.6.4.8.2.1.4.2.6.2.6 0 1-.4 1-1 0-2.2 1.8-4 3.9-4h4.5v20c0 3.1-4.1 7.4-7.6 10.4-2.2 1.9-4.1 3.3-4.8 3.6H27c-.4-.2-1.1-.6-2-1.3C21.3 52.1 14.1 46 14.1 42V22zm-2.4-5.1c.1.1.3.1.4.1v6.8c-3.6-.7-6.3-2.3-8-4.7C2.3 16.5 2 13.3 2 11.6l9.7 5.3z" fill="#ffffff" class="color000 svgShape"></path></g><metadata><rdf:rdf xmlns:rdf="http://www.w3.org/1999/02/22-rdf-syntax-ns#" xmlns:rdfs="http://www.w3.org/2000/01/rdf-schema#" xmlns:dc="http://purl.org/dc/elements/1.1/"><rdf:description about="https://iconscout.com/legal#licenses" dc:title="goat" dc:description="goat" dc:publisher="Iconscout" dc:date="2017-09-06" dc:format="image/svg+xml" dc:language="en"><dc:creator><rdf:bag><rdf:li>Madeby Grids</rdf:li></rdf:bag></dc:creator></rdf:description></rdf:rdf></metadata></svg></g></svg>